<?xml version="1.0" encoding="UTF-8"?>
<svg version="1.1" xmlns="http://www.w3.org/2000/svg" width="859" height="134">
<path d="M0 0 C283.47 0 566.94 0 859 0 C859 44.22 859 88.44 859 134 C575.53 134 292.06 134 0 134 C0 89.78 0 45.56 0 0 Z "   transform="translate(0,0)"/>
<path d="M0 0 C8.58 0 17.16 0 26 0 C27.72026089 5.16078267 29.38271871 10.15705541 30.796875 15.37890625 C31.11205078 16.53471191 31.42722656 17.69051758 31.75195312 18.88134766 C32.08130859 20.09612793 32.41066406 21.3109082 32.75 22.5625 C33.46115587 25.16602146 34.17526782 27.76872375 34.890625 30.37109375 C35.06916016 31.02057983 35.24769531 31.67006592 35.43164062 32.3392334 C37.87450993 41.20187854 40.46185032 50.02148251 43.06738281 58.83740234 C44.11074821 62.37555821 45.145243 65.91625738 46.1796875 69.45703125 C46.9112099 71.95059373 47.64297611 74.4440847 48.375 76.9375 C48.72111328 78.12424316 49.06722656 79.31098633 49.42382812 80.53369141 C49.74544922 81.62472168 50.06707031 82.71575195 50.3984375 83.83984375 C50.68380371 84.81300537 50.96916992 85.78616699 51.26318359 86.78881836 C51.79983623 88.94893705 51.79983623 88.94893705 53 90 C54.66617115 90.04063832 56.33388095 90.042721 58 90 C58.63196384 88.50292061 59.25514393 87.00213297 59.875 85.5 C60.39707031 84.24703125 60.39707031 84.24703125 60.9296875 82.96875 C61.96264806 80.10360393 62.73969331 77.24005833 63.45068359 74.28027344 C66.32265087 62.35841816 69.5085841 50.49136127 72.9375 38.71875 C74.34144115 33.80495599 75.66695702 28.87091602 77 23.9375 C79.17557638 15.90128504 81.48335048 7.93712541 84 0 C92.91 0 101.82 0 111 0 C114.62231217 9.65949913 117.37594366 19.35804615 119.8125 29.375 C121.7020729 37.12626113 123.9430185 44.76167754 126.21313477 52.40893555 C127.85409906 57.96879031 129.42625732 63.53843847 130.90234375 69.14453125 C131.21196045 70.32031738 131.52157715 71.49610352 131.84057617 72.70751953 C132.43482474 74.98145755 133.02251569 77.25712212 133.6027832 79.53466797 C133.8730835 80.56865723 134.14338379 81.60264648 134.421875 82.66796875 C134.77137207 84.03344849 134.77137207 84.03344849 135.12792969 85.42651367 C136.10560887 88.31165261 137.14968131 90.57220899 139 93 C140.32 93 141.64 93 143 93 C148.28871238 77.5499189 153.38496551 62.1282241 157.6640625 46.36254883 C159.40950451 39.97246485 161.40496379 33.82015399 163.7421875 27.62109375 C165.7522096 21.83447732 167.34294481 15.92742625 168.94555664 10.01660156 C169.18395264 9.15131836 169.42234863 8.28603516 169.66796875 7.39453125 C169.87703857 6.61956299 170.0861084 5.84459473 170.30151367 5.04614258 C171 3 171 3 173 0 C175.43017578 -0.34057617 175.43017578 -0.34057617 178.4453125 -0.29296875 C179.52167969 -0.28330078 180.59804688 -0.27363281 181.70703125 -0.26367188 C183.39892578 -0.2259668 183.39892578 -0.2259668 185.125 -0.1875 C186.26066406 -0.17396484 187.39632812 -0.16042969 188.56640625 -0.14648438 C191.37807387 -0.11104319 194.18880417 -0.06163517 197 0 C195.54805472 7.10752121 193.54036292 13.90973644 191.296875 20.8046875 C190.75646576 22.48257858 190.75646576 22.48257858 190.20513916 24.19436646 C189.05723442 27.75582005 187.90380698 31.3154547 186.75 34.875 C185.61531021 38.38803447 184.48176997 41.90143853 183.3482666 45.41485596 C182.60768061 47.71018556 181.86671587 50.005393 181.12536621 52.30047607 C177.31358878 64.10720241 173.54221837 75.92599018 169.921875 87.79296875 C167.8146256 94.67206914 165.53944035 101.4922657 163.25 108.3125 C161.14625 114.5928125 161.14625 114.5928125 159 121 C147.78 121 136.56 121 125 121 C123.2675 116.00875 121.535 111.0175 119.75 105.875 C119.21213867 104.33183105 118.67427734 102.78866211 118.12011719 101.19873047 C115.47376703 93.56110521 113.04415993 85.91524662 110.87597656 78.12646484 C109.67655106 73.84557216 108.35271401 69.60948289 107 65.375 C106.74653809 64.57666748 106.49307617 63.77833496 106.23193359 62.95581055 C104.21311642 56.61744062 102.13752618 50.29941537 100 44 C98.35 43.67 96.7 43.34 95 43 C94.76216797 44.14662109 94.76216797 44.14662109 94.51953125 45.31640625 C92.88282659 52.83077958 90.74725623 60.05075831 88.25390625 67.3203125 C85.23302054 76.18534158 82.63812481 85.18637832 80.00708008 94.1730957 C77.38308988 103.12891025 74.6873448 112.06301614 72 121 C60.78 121 49.56 121 38 121 C26.70178611 88.62097237 26.70178611 88.62097237 22.86132812 74.63378906 C21.45146722 69.50796734 19.82432446 64.54715166 17.92578125 59.578125 C16.40844042 55.3526189 15.26160762 51.0255831 14.0546875 46.703125 C12.80548269 42.31702811 11.44676735 37.97053138 10.07543945 33.62133789 C8.09891854 27.34142949 6.16943448 21.04757547 4.25 14.75 C3.94408936 13.74912354 3.63817871 12.74824707 3.32299805 11.71704102 C3.03593994 10.77401123 2.74888184 9.83098145 2.453125 8.859375 C2.19692383 8.01858398 1.94072266 7.17779297 1.67675781 6.31152344 C1.06511379 4.22240164 0.52795601 2.11182404 0 0 Z " fill="#00FBFB" transform="translate(323,8)"/>
<path d="M0 0 C0.86865189 -0.00014603 1.73730377 -0.00029205 2.63227844 -0.0004425 C5.49999499 0.00025349 8.36764638 0.00803124 11.23535156 0.01586914 C13.22503626 0.01773443 15.21472142 0.01915781 17.20440674 0.02015686 C22.43883535 0.02397327 27.67323617 0.0337961 32.90765381 0.04486084 C38.24995549 0.05509378 43.59226166 0.05965852 48.93457031 0.06469727 C59.41505323 0.07541914 69.89550824 0.09300887 80.37597656 0.11352539 C80.37597656 7.37352539 80.37597656 14.63352539 80.37597656 22.11352539 C76.5904834 22.12754395 76.5904834 22.12754395 72.72851562 22.1418457 C64.39436335 22.17559882 56.06045913 22.23113833 47.72650528 22.29742813 C42.67312563 22.3369531 37.61992156 22.36911691 32.56640625 22.38452148 C27.69029652 22.39965505 22.8146693 22.43404168 17.93877411 22.48183441 C16.07767681 22.49668234 14.21651064 22.50456835 12.35535431 22.50540924 C9.75005021 22.50777044 7.14608879 22.53478035 4.54101562 22.56762695 C3.76993469 22.56259659 2.99885376 22.55756622 2.20440674 22.55238342 C-1.26391422 22.62012866 -3.26925369 22.8540398 -6.10333252 24.92694092 C-8.34513634 28.15040557 -8.11880554 30.73361798 -8.06152344 34.61352539 C-8.05958984 36.57805664 -8.05958984 36.57805664 -8.05761719 38.58227539 C-7.61404804 42.19476648 -7.26778567 43.66759571 -4.62402344 46.11352539 C-1.44826711 47.17516895 1.54031235 47.24887176 4.87207031 47.27124023 C6.52529297 47.28663345 6.52529297 47.28663345 8.21191406 47.30233765 C9.9946875 47.31328964 9.9946875 47.31328964 11.81347656 47.32446289 C14.34343076 47.3525482 16.87337859 47.38121276 19.40332031 47.41040039 C23.38138281 47.45151732 27.35921392 47.48841382 31.33740234 47.51489258 C35.18384295 47.54269933 39.02974666 47.58858795 42.87597656 47.63696289 C44.63445923 47.64184219 44.63445923 47.64184219 46.4284668 47.64682007 C57.54138711 47.81012274 68.1782459 49.00749193 76.37597656 57.11352539 C83.69109761 65.01185654 85.92624475 73.44322378 85.75097656 84.05102539 C85.7379248 85.36707764 85.7379248 85.36707764 85.72460938 86.7097168 C85.48349227 97.34060944 83.1909041 105.68070708 75.31347656 113.23852539 C64.36974285 121.7688902 51.67430507 120.64123616 38.52050781 120.50415039 C36.40631142 120.49667887 34.29210805 120.49099025 32.17790222 120.48699951 C26.64582799 120.47181499 21.11418188 120.43259569 15.58227539 120.38818359 C9.9243753 120.34707519 4.26640521 120.32895539 -1.39160156 120.30883789 C-12.46929272 120.26609386 -23.5465553 120.1958034 -34.62402344 120.11352539 C-34.29402344 112.85352539 -33.96402344 105.59352539 -33.62402344 98.11352539 C-29.71006714 98.08379639 -29.71006714 98.08379639 -25.71704102 98.0534668 C-17.09557717 97.98655788 -8.47423402 97.9089183 0.14708996 97.82599831 C5.37415602 97.77605401 10.60120206 97.72972368 15.82836914 97.69165039 C20.87293543 97.65477418 25.91733342 97.60840764 30.96175575 97.55546188 C32.88623413 97.5369304 34.81074857 97.52181783 36.73528099 97.51018143 C39.43103644 97.49329778 42.1264075 97.46425744 44.82202148 97.43237305 C46.01532829 97.42913277 46.01532829 97.42913277 47.23274231 97.42582703 C51.36629374 97.36337672 54.69476246 97.06364172 58.37597656 95.11352539 C62.03255019 91.20477427 61.81582096 86.86304996 61.66503906 81.77758789 C61.28848914 78.30722241 60.41221806 75.94971891 58.37597656 73.11352539 C55.03686229 70.92197331 52.17630121 70.84496257 48.23730469 70.7980957 C46.99501099 70.77757141 45.75271729 70.75704712 44.47277832 70.73590088 C43.48006676 70.72558712 43.48006676 70.72558712 42.46730042 70.715065 C40.37980265 70.69133869 38.29310552 70.65239146 36.20593262 70.60882568 C30.27265802 70.48615407 24.33945561 70.37804768 18.40527344 70.31079102 C14.76888551 70.26848037 11.1339473 70.19754533 7.49839783 70.10927582 C6.12411269 70.08126305 4.7495709 70.06358143 3.37501526 70.05716705 C-7.95740641 69.99873634 -17.42483958 67.66115817 -25.62402344 59.42602539 C-33.30280615 49.41920098 -33.67611078 38.22421972 -32.62402344 26.11352539 C-31.52905185 18.44872426 -28.16593807 12.51122663 -22.62402344 7.11352539 C-15.01856704 1.54399117 -9.33209592 -0.04102475 0 0 Z " fill="#00FBFB" transform="translate(627.6240234375,8.886474609375)"/>
<path d="M0 0 C0.85962845 -0.00058411 1.7192569 -0.00116821 2.60493469 -0.00177002 C5.41340174 0.00099082 8.22077381 0.03198662 11.02905273 0.06347656 C12.98916545 0.07094609 14.94928569 0.07663566 16.90940857 0.08062744 C22.04368058 0.09582768 27.17749286 0.13506072 32.31158447 0.17944336 C37.56044294 0.22051758 42.80937641 0.23866432 48.05834961 0.25878906 C58.33918203 0.30156089 68.61955392 0.37186441 78.90014648 0.45410156 C78.90014648 7.71410156 78.90014648 14.97410156 78.90014648 22.45410156 C75.197677 22.49168579 75.197677 22.49168579 71.42041016 22.5300293 C63.27394572 22.61342776 55.12754521 22.70212339 46.98116589 22.79344082 C42.04101488 22.84865442 37.10085793 22.90207199 32.16064453 22.95141602 C27.39494435 22.99908253 22.62931658 23.05142627 17.86370277 23.10704231 C16.04362092 23.12745548 14.22351921 23.14617028 12.40340233 23.16317558 C9.85821723 23.18724251 7.31316902 23.21729402 4.76806641 23.2487793 C4.01209167 23.25453476 3.25611694 23.26029022 2.47723389 23.26622009 C-0.64299745 23.31022536 -3.11737413 23.45994177 -6.09985352 24.45410156 C-8.95370082 33.01564348 -7.7241521 42.4372677 -8.09985352 51.45410156 C16.65014648 51.45410156 41.40014648 51.45410156 66.90014648 51.45410156 C66.90014648 58.05410156 66.90014648 64.65410156 66.90014648 71.45410156 C42.15014648 71.45410156 17.40014648 71.45410156 -8.09985352 71.45410156 C-9.52147557 91.15360083 -9.52147557 91.15360083 -2.09985352 97.45410156 C0.73336434 97.94754935 2.96906881 98.13721883 5.7956543 98.09765625 C6.96476852 98.11097237 6.96476852 98.11097237 8.15750122 98.1245575 C10.72319518 98.14818212 13.28751302 98.13706441 15.85327148 98.12597656 C17.63736456 98.13655582 19.42144521 98.14946711 21.20550537 98.16461182 C25.8938203 98.19880481 30.58171896 98.20419438 35.2701416 98.20269775 C41.89271941 98.20592581 48.51518175 98.24852958 55.13763428 98.28643799 C58.66442321 98.30651006 62.19099076 98.31578824 65.71783447 98.31658936 C67.31929531 98.32040788 68.92075609 98.32425169 70.5222168 98.328125 C71.25882538 98.32602524 71.99543396 98.32392548 72.75436401 98.32176208 C77.78713783 98.34109291 77.78713783 98.34109291 78.90014648 99.45410156 C78.98700251 101.01582901 79.00716868 102.58139501 78.99780273 104.14550781 C78.99296875 105.56186523 78.99296875 105.56186523 78.98803711 107.00683594 C78.97546875 108.49666992 78.97546875 108.49666992 78.96264648 110.01660156 C78.95813477 111.01369141 78.95362305 112.01078125 78.94897461 113.03808594 C78.93714655 115.51015005 78.92066498 117.98209674 78.90014648 120.45410156 C67.72953425 120.54702932 56.55901489 120.61798192 45.38809395 120.66135025 C40.20024019 120.68217126 35.01265208 120.71038826 29.82495117 120.75585938 C24.81285894 120.7995133 19.80102127 120.82327988 14.78875351 120.83361053 C12.8822924 120.84096693 10.97584426 120.85533189 9.06949234 120.87702179 C-2.18766044 120.99993836 -11.01124284 120.80393084 -20.84985352 114.76660156 C-31.06676941 104.26588245 -32.56791036 93.4599548 -32.49829102 79.27050781 C-32.50031681 77.80516923 -32.50323243 76.33983163 -32.50698853 74.87449646 C-32.51138957 71.81589073 -32.50505406 68.75754939 -32.4909668 65.69897461 C-32.4738912 61.80451892 -32.48371953 57.91068443 -32.50168419 54.01625156 C-32.51259556 50.99366187 -32.50904202 47.97121611 -32.50130081 44.94862175 C-32.49931825 43.51389426 -32.50168865 42.07915314 -32.50873947 40.6444416 C-32.5641432 26.20416935 -30.26950685 16.84213275 -20.36938477 6.16503906 C-14.07693419 1.42133278 -7.75424381 -0.14106708 0 0 Z " fill="#00FBFB" transform="translate(770.099853515625,8.5458984375)"/>
<path d="M0 0 C0.78130783 -0.00029205 1.56261566 -0.00058411 2.36759949 -0.00088501 C4.92690488 0.0004983 7.48591204 0.01601193 10.04516602 0.03173828 C11.82877951 0.03547197 13.61239507 0.03831726 15.39601135 0.04031372 C20.07312763 0.04792215 24.75011819 0.06754649 29.42718506 0.08972168 C34.20672913 0.11024041 38.98629365 0.11932829 43.76586914 0.12939453 C53.13116742 0.15079518 62.49633968 0.1859544 71.86157227 0.22705078 C71.86157227 7.48705078 71.86157227 14.74705078 71.86157227 22.22705078 C68.53832886 22.24106934 68.53832886 22.24106934 65.14794922 22.25537109 C57.82360645 22.28915558 50.499545 22.34471258 43.17542744 22.41095352 C38.73526352 22.45044366 34.29529838 22.48262449 29.85498047 22.49804688 C25.56886608 22.51320351 21.28329809 22.54763089 16.99742699 22.5953598 C15.36323995 22.61018395 13.7289749 22.61809239 12.09472084 22.61893463 C9.80327904 22.62130306 7.51334883 22.64836941 5.22216797 22.68115234 C3.26691948 22.69447601 3.26691948 22.69447601 1.27217102 22.70806885 C-2.7444891 23.0284089 -2.7444891 23.0284089 -7.13842773 27.22705078 C-7.46842773 35.80705078 -7.79842773 44.38705078 -8.13842773 53.22705078 C15.29157227 53.22705078 38.72157227 53.22705078 62.86157227 53.22705078 C62.86157227 60.15705078 62.86157227 67.08705078 62.86157227 74.22705078 C39.43157227 74.22705078 16.00157227 74.22705078 -8.13842773 74.22705078 C-8.13842773 89.40705078 -8.13842773 104.58705078 -8.13842773 120.22705078 C-16.05842773 120.22705078 -23.97842773 120.22705078 -32.13842773 120.22705078 C-32.20631015 107.99603211 -32.26130547 95.76513937 -32.29386425 83.53397465 C-32.30949389 77.85403993 -32.33068291 72.17424122 -32.36474609 66.49438477 C-32.39743572 61.00898852 -32.41530106 55.52372279 -32.42305946 50.03823662 C-32.42858573 47.94954818 -32.43937711 45.86086657 -32.4556179 43.77223396 C-32.47751971 40.83782864 -32.48038932 37.90395685 -32.47900391 34.96948242 C-32.48978973 34.11351974 -32.50057556 33.25755707 -32.51168823 32.37565613 C-32.46351712 22.89424059 -29.63185827 15.17385147 -23.13842773 8.22705078 C-16.17828057 1.84691588 -9.44509905 -0.09394966 0 0 Z " fill="#00FAFA" transform="translate(50.138427734375,8.77294921875)"/>
<path d="M0 0 C38.28 0 76.56 0 116 0 C115.67 7.26 115.34 14.52 115 22 C100.15 22 85.3 22 70 22 C70 54.67 70 87.34 70 121 C62.08 121 54.16 121 46 121 C46 88.33 46 55.66 46 22 C30.82 22 15.64 22 0 22 C0 14.74 0 7.48 0 0 Z " fill="#00F7F7" transform="translate(192,8)"/>
<path d="M0 0 C7.92 0 15.84 0 24 0 C24 39.93 24 79.86 24 121 C16.08 121 8.16 121 0 121 C0 81.07 0 41.14 0 0 Z " fill="#00FAFA" transform="translate(544,8)"/>
<path d="M0 0 C7.92 0 15.84 0 24 0 C24 39.93 24 79.86 24 121 C16.08 121 8.16 121 0 121 C0 81.07 0 41.14 0 0 Z " fill="#00FAFA" transform="translate(146,8)"/>
 >
 
</svg>
